<svg viewBox="0 0 365 99.5" xmlns="http://www.w3.org/2000/svg" xmlns:xlink="http://www.w3.org/1999/xlink"><clipPath id="a"><path d="m0 0h365v99.5h-365z"/></clipPath><clipPath id="b"><path d="m15.3 51h16.4v8.9h-16.4z"/></clipPath><linearGradient id="c"><stop offset="0" stop-color="#354c8f"/><stop offset="1" stop-color="#201f53"/></linearGradient><linearGradient id="d" gradientTransform="matrix(0 -10.1058 10.1058 0 -982.008 58.97)" gradientUnits="userSpaceOnUse" x2="1" xlink:href="#c" y1="99.492" y2="99.492"/><clipPath id="e"><path d="m0 0h365v99.5h-365z"/></clipPath><clipPath id="f"><path d="m15.3 51 .2 8.9h16.2s-3.5-2.7-3.9-8.9z"/></clipPath><linearGradient id="g" gradientTransform="matrix(0 -13.8589 -13.8589 0 1402.281 59.865)" gradientUnits="userSpaceOnUse" x2="1" xlink:href="#c" y1="99.492" y2="99.492"/><clipPath id="h"><path d="m80.4 42s3.2 2.6 3.9 8.9h7l5.2-8.9z"/></clipPath><linearGradient id="i" gradientTransform="matrix(-.16398969 9.67561039 9.67561039 .16398969 -874.20849 25.86761)" gradientUnits="userSpaceOnUse" x2="1" y1="99.499" y2="99.499"><stop offset="0" stop-color="#d31f37"/><stop offset="1" stop-color="#7b1315"/></linearGradient><clipPath id="j"><path d="m0 0h365v99.5h-365z"/></clipPath><path d="m122 88v11.4h4.7v-1.7h-3v-9.7z" fill="#fff"/><path clip-path="url(#a)" d="m134.1 98.5c-.5.6-1.2 1-2.2 1-1.1 0-1.7-.4-2.2-1-.8-.9-.8-2.1-.8-4.8s.1-3.9.8-4.9c.5-.6 1.2-1 2.2-1 1.1 0 1.7.4 2.2 1 .8.9.8 2.1.8 4.9.1 2.7 0 3.9-.8 4.8m-1.3-8.6c-.2-.3-.4-.4-.9-.4-.4 0-.7.2-.8.4-.3.5-.4 1.7-.4 3.8s.1 3.2.4 3.8c.2.3.4.4.8.4s.7-.2.9-.4c.3-.5.4-1.7.4-3.8s-.1-3.3-.4-3.8m10 8.8c-.5.4-1.2.8-2.2.8s-1.7-.3-2.2-.8-.7-1.2-.7-2.4h1.8c0 .6.1 1 .3 1.3.2.2.4.3.8.3s.7-.1.9-.3c.2-.3.3-.7.3-1.3 0-1.2-.2-1.5-1.1-1.9l-1.4-.6c-1.2-.5-1.6-1.1-1.6-2.9 0-1 .3-1.9.9-2.4.5-.4 1.1-.7 2-.7s1.6.2 2 .7c.6.6.8 1.4.8 2.5h-1.8c0-.5 0-.9-.3-1.2-.2-.2-.4-.3-.8-.3s-.6.1-.8.3-.3.6-.3 1.1c0 .9.1 1.2.9 1.5l1.3.5c1.4.6 1.7 1.3 1.7 3.2.2 1.3.1 2.1-.5 2.6m12.6.7-.5-2.3h-2.6l-.4 2.3h-1.9l2.8-11.4h1.7l2.8 11.4zm-1.8-8.7-1 4.8h2zm10.7 8.7-2.7-6.8v6.8h-1.8v-11.4h1.6l2.7 6.7v-6.7h1.7v11.4zm7.6.1c-1.1 0-1.7-.4-2.2-1-.8-.9-.8-2.1-.8-4.9 0-2.7.1-4 .8-4.8.5-.6 1.2-1 2.2-1 .9 0 1.6.3 2 .8.6.6.8 1.4.9 2.4h-1.8c0-.6-.1-1.5-1.1-1.5-.4 0-.7.2-.8.4-.4.5-.4 1.7-.4 3.8s0 3.2.4 3.8c.2.3.4.4.8.4.8 0 1.1-.7 1.1-1.5v-1.8h-1.1v-1.5h2.9v3.2c.1 2.1-1.1 3.2-2.9 3.2m6-.1v-11.4h4.8v1.6h-3v3.2h2.6v1.6h-2.6v3.3h3v1.7zm7.8 0v-11.4h1.8v9.7h3v1.7zm7.6 0v-11.4h4.8v1.6h-3v3.2h2.5v1.6h-2.5v3.3h3v1.7zm12.5-.7c-.5.4-1.2.8-2.2.8s-1.7-.3-2.2-.8-.7-1.2-.7-2.4h1.8c0 .6.1 1 .3 1.3.2.2.4.3.8.3s.7-.1.9-.3c.2-.3.3-.7.3-1.3 0-1.2-.2-1.5-1.1-1.9l-1.4-.6c-1.2-.5-1.6-1.1-1.6-2.9 0-1 .3-1.9.9-2.4.5-.4 1.1-.7 2-.7s1.6.2 2 .7c.6.6.8 1.4.8 2.5h-1.8c0-.5 0-.9-.3-1.2-.2-.2-.4-.3-.8-.3s-.6.1-.8.3-.3.6-.3 1.1c0 .9.1 1.2.9 1.5l1.3.5c1.4.6 1.7 1.3 1.7 3.2.3 1.3.1 2.1-.5 2.6m29.4.7v-1.4l2.8-5.5c.3-.5.5-1.2.5-2 0-.7-.4-1-.8-1-.5 0-.8.3-.8 1v.7h-1.7v-.7c0-.9.3-1.5.7-1.9s1.2-.7 1.8-.7c.7 0 1.3.2 1.8.6.4.4.8 1.1.8 2 0 .8-.3 1.8-.6 2.5l-2.6 4.9h3.2v1.5zm12.1-.6c-.4.4-1.1.7-1.8.7s-1.4-.2-1.8-.7c-.7-.7-.8-1.4-.8-2.7 0-1 .1-1.5.3-2 .2-.3.4-.5.7-.7-.3-.2-.5-.4-.6-.7-.2-.5-.3-1-.3-1.8 0-1.1.2-1.9.7-2.4.4-.4 1.1-.7 1.7-.7.7 0 1.3.2 1.8.7.6.6.7 1.3.7 2.4 0 .8-.1 1.3-.3 1.8-.1.3-.4.5-.6.7.3.2.5.4.7.7.3.5.3 1.1.3 2 .1 1.3 0 2-.7 2.7m-1.2-4.4c-.1-.2-.4-.3-.6-.3s-.5.1-.6.3c-.2.3-.3.7-.3 1.7 0 .9 0 1.4.3 1.6.1.2.4.3.6.3s.5-.1.6-.3c.2-.3.3-.8.3-1.6 0-1-.1-1.4-.3-1.7m-.1-4.8c-.1-.1-.3-.2-.5-.2s-.4.1-.5.2c-.2.2-.3.5-.3 1.5s.1 1.3.3 1.5c.1.1.3.2.5.2s.4-.1.5-.2c.2-.2.3-.5.3-1.5 0-1.1-.1-1.3-.3-1.5m13 9c-.5.6-1.3.9-2.3.9-.9 0-1.7-.3-2.2-.9l1.2-1.2c.2.3.6.5 1 .5.7 0 1.3-.5 1.3-1.5v-8.4h1.8v8.4c0 .9-.3 1.7-.8 2.2m9 .1c-.5.6-1.3.8-2.1.8s-1.6-.3-2.1-.8-.8-1.2-.8-2.1v-8.6h1.8v8.7c0 .8.5 1.2 1.1 1.2s1.1-.4 1.1-1.2v-8.7h1.8v8.6c0 .8-.3 1.5-.8 2.1m4 .7v-11.4h1.8v9.7h3v1.7zm9.9-4.5v4.5h-1.8v-4.5l-2.3-6.9h2l1.2 4.5 1.1-4.5h2zm8.6-1h5.9v1.6h-5.9zm15.2 5.5v-9.4l-1.7 1.3v-2l1.7-1.3h1.7v11.4zm14.9 0-.5-2.3h-2.6l-.4 2.3h-1.9l2.8-11.4h1.7l2.8 11.4zm-1.8-8.7-1 4.8h2zm11.1 8c-.5.6-1.3.8-2.1.8s-1.6-.3-2.1-.8-.8-1.2-.8-2.1v-8.6h1.8v8.7c0 .8.5 1.2 1.1 1.2s1.1-.4 1.1-1.2v-8.7h1.8v8.6c-.1.8-.3 1.5-.8 2.1m6.7.8c-1.1 0-1.7-.4-2.2-1-.8-.9-.8-2.1-.8-4.9 0-2.7.1-4 .8-4.8.5-.6 1.2-1 2.2-1 .9 0 1.6.3 2 .8.6.6.8 1.4.9 2.4h-1.8c0-.6-.1-1.5-1.1-1.5-.4 0-.7.2-.8.4-.4.5-.4 1.7-.4 3.8s0 3.2.4 3.8c.2.3.4.4.8.4.8 0 1.1-.7 1.1-1.5v-1.8h-1.1v-1.5h2.9v3.2c0 2.1-1.2 3.2-2.9 3.2m11-.8c-.5.6-1.3.8-2.1.8s-1.6-.3-2.1-.8-.8-1.2-.8-2.1v-8.6h1.8v8.7c0 .8.5 1.2 1.1 1.2s1.1-.4 1.1-1.2v-8.7h1.8v8.6c-.1.8-.4 1.5-.8 2.1m8.8 0c-.5.4-1.2.8-2.2.8s-1.7-.3-2.2-.8-.7-1.2-.7-2.4h1.8c0 .6.1 1 .3 1.3.2.2.4.3.8.3s.7-.1.9-.3c.2-.3.3-.7.3-1.3 0-1.2-.2-1.5-1.1-1.9l-1.4-.6c-1.2-.5-1.6-1.1-1.6-2.9 0-1 .3-1.9.9-2.4.5-.4 1.1-.7 2-.7s1.6.2 2 .7c.6.6.8 1.4.8 2.5h-1.8c0-.5 0-.9-.3-1.2-.2-.2-.4-.3-.8-.3s-.6.1-.8.3-.3.6-.3 1.1c0 .9.1 1.2.9 1.5l1.3.5c1.4.6 1.7 1.3 1.7 3.2.2 1.3 0 2.1-.5 2.6m6.7-9.1v9.8h-1.8v-9.8h-1.9v-1.6h5.6v1.6z" fill="#fff"/><path clip-path="url(#a)" d="m222.7 96.5-1.7-2.9h-3.3l1.7 2.9z" fill="#faa225"/><path clip-path="url(#a)" d="m222.7 90.7-1.7 2.9 1.7 2.9 1.7-2.9z" fill="#ef495c"/><path clip-path="url(#a)" d="m222.7 90.7h-3.3l-1.7 2.9h3.3z" fill="#4b5ba9"/><path clip-path="url(#b)" d="m15.3 51h16.4v8.9h-16.4z" fill="url(#d)"/><path clip-path="url(#e)" d="m85.5 50.9h-5.1v-8.9h5.1z" fill="#781115"/><path clip-path="url(#e)" d="m26.1 51h5.6v8.9h-5.6z" fill="#272862"/><path clip-path="url(#e)" d="m22.8 90.5 5.2-8.9h45.6l17.7-30.7 5.2-8.9h10.3l-2 13.5-22.4 39.2-54.2 1.6z" fill="#dd3b57"/><path clip-path="url(#f)" d="m15.3 51h16.4v8.9h-16.4z" fill="url(#g)"/><path clip-path="url(#h)" d="m96.6 42-.1 9.2-16.2-.3.1-9.2z" fill="url(#i)"/><path clip-path="url(#j)" d="m78.8 90.6-56-.1 5.2 8.9h56l18.6-32.3-5.2-8.9z" fill="#faa224"/><path clip-path="url(#j)" d="m106.8 42v.1l-3.1 5.3 5.1 9 3.1-5.4v-.1z" fill="#e55326"/><path clip-path="url(#j)" d="m97.4 58.2 5.2 8.9 3.1-5.3-5.1-9z" fill="#f58027"/><path clip-path="url(#j)" d="m103.7 47.4-3.2 5.4 5.2 9 3.1-5.4z" fill="#e96a24"/><path clip-path="url(#j)" d="m28 2.5-28 48.4 5.2 9 9.1-7.6 20.4-35.4 5.6-1.6 30.9-2.5-5.9-10.3z" fill="#68bfb1"/><path clip-path="url(#j)" d="m71.5 2.5h-6.2l5.9 10.3 6-.5z" fill="#2ea39a"/><path clip-path="url(#j)" d="m84 2.5h-6.3l5.4 9.4 6-.5z" fill="#1e8488"/><path clip-path="url(#j)" d="m83.1 11.9-5.4-9.4h-6.2l5.7 9.8z" fill="#249994"/><path clip-path="url(#j)" d="m89.1 11.4h-56l-27.9 48.5h10.3l22.8-39.6h45.7z" fill="#43569f"/><path clip-path="url(#j)" d="m52.2 60c-5.5 1.9-9.8 1.9-11.2-.3-2.3-3.6 3.9-11.8 13.9-18.4 8.5-5.6 17.2-8.1 21-6.5-2.6-2.9-13.2-1-25.7 7.1-9.2 5.9-16.1 13.2-17.2 18.1-.2 1-.2 1.8.2 2.5 0 .1.1.1.1.2s.1.1.1.2c.1.1.2.2.2.3 2.4 2.4 10 1.1 18.6-3.2" fill="#4d5ba8"/><path clip-path="url(#j)" d="m61.8 60.1c9.2-5.9 16.1-13.2 17.1-18.1.2-1 .1-1.8-.2-2.5 0 0 0-.1-.1-.1 0-.1-.1-.2-.1-.2-.1-.1-.2-.2-.2-.3-2.4-2.5-9.9-1.2-18.6 3.1 5.5-1.9 9.8-1.9 11.3.3 2.3 3.6-3.9 11.8-13.9 18.4-8.5 5.6-17.2 8.1-21 6.5 2.6 2.9 13.2 1 25.7-7.1" fill="#ef495c"/><path clip-path="url(#j)" d="m41.7 28.8c-10.5 6.8-14.4 20.4-10 31 1.3-5.2 8.3-13.4 17.6-19.4.2-.1.3-.2.5-.3l-6.9-12c-.5.3-.9.5-1.2.7" fill="#70c9bd"/><path clip-path="url(#j)" d="m63.2 33.5-5.1-8.8c-1.9-.2-3.8-.1-5.7.1l6.1 10.5c1.7-.7 3.2-1.3 4.7-1.8" fill="#249994"/><path clip-path="url(#j)" d="m73.6 32c-2.5-2.6-5.4-4.5-8.7-5.8l3.4 5.9c2-.3 3.8-.3 5.3-.1" fill="#1e8488"/><path clip-path="url(#j)" d="m68.3 32.2-3.4-5.9c-2.1-.8-4.4-1.3-6.7-1.5l5.1 8.8c1.7-.7 3.4-1.2 5-1.4" fill="#249994"/><path clip-path="url(#j)" d="m58.5 35.3-6.1-10.5c-1.7.2-3.4.6-5.1 1.2l6.7 11.6c1.6-.9 3.1-1.6 4.5-2.3" fill="#37aaa0"/><path clip-path="url(#j)" d="m47.4 26.1c-1.6.5-3.1 1.2-4.6 2.1l6.9 12c1.5-.9 2.9-1.8 4.3-2.5z" fill="#37aaa0"/><path clip-path="url(#j)" d="m70.3 55.8 6.5 11.2c1.2-1.5 2.2-3.2 3-4.9l-5.7-9.9c-1.1 1.2-2.4 2.4-3.8 3.6" fill="#e96a24"/><path clip-path="url(#j)" d="m38.4 69.9c7.6 8.1 20.4 9.9 30.7 3.9l-6.9-12c-9.4 6-18.6 9-23.8 8.1" fill="#faa224"/><path clip-path="url(#j)" d="m77.5 48.2c-1 1.3-2.1 2.7-3.4 4.1l5.7 9.9c1-2.1 1.6-4.3 2-6.5z" fill="#e96a24"/><path clip-path="url(#j)" d="m62.7 61.5c-.2.1-.3.2-.5.3l6.9 12c.4-.2.7-.4 1.1-.7 1.1-.7 2.1-1.4 3-2.2l-6.8-11.9c-1.2.8-2.4 1.7-3.7 2.5" fill="#f58027"/><path clip-path="url(#j)" d="m66.4 59 6.9 11.9c1.3-1.2 2.5-2.4 3.6-3.8l-6.5-11.2c-1.3 1-2.6 2-4 3.1" fill="#f58027"/><path clip-path="url(#j)" d="m78.8 90.6 5.2 8.8 18.6-32.3-5.2-8.9z" fill="#f68924"/><path clip-path="url(#j)" d="m22.8 90.5 5.2-8.9h45.6l5.2 9z" fill="#ef495c"/><path clip-path="url(#j)" d="m28 2.5 5.1 8.9h37.3l-5.1-8.9z" fill="#37aaa0"/><path clip-path="url(#j)" d="m81 43.9c-.1-.4-.4-1.4-.6-1.9 0 .2 0 .4-.1.6v.1c-.4 2.5-2.8 5.5-2.8 5.5l4.3 7.4c.6-3.9.4-7.9-.8-11.7" fill="#e55326"/><path clip-path="url(#j)" d="m81.8 55.6c.6-3.9.4-7.9-.8-11.7-.1-.4-.3-1.3-.5-1.7 0-.1-.1-.1-.1-.1 4.4 22.1-12.3 30-12.3 30l-.2 1.6 1.2.2c.4-.2.7-.4 1.1-.7 1.1-.7 2.1-1.4 3-2.2 1.3-1.2 2.5-2.4 3.6-3.8 1.2-1.5 2.2-3.2 3-4.9 1-2.3 1.6-4.5 2-6.7" fill="#faa224"/><path clip-path="url(#j)" d="m73.6 32c-2.5-2.6-5.4-4.5-8.7-5.8-2.1-.8-4.4-1.3-6.7-1.5-1.9-.2-3.8-.1-5.7.1-1.7.2-3.4.6-5.1 1.2-1.6.5-3.1 1.2-4.6 2.1-.2.1-.4.3-.6.4l.2 1h1.2s14.7-10 30 2.5" fill="#70c9bd"/><path clip-path="url(#j)" d="m137.3 77c-1.4 1.4-3.7 2.3-6.8 2.3-3 0-5.2-.8-6.7-2.3-1.7-1.7-2.2-3.8-2.2-7.4h5.4c0 1.8.2 3 1 3.9.5.5 1.3.9 2.5.9 1.3 0 2.1-.3 2.6-1 .7-.8.9-2 .9-3.8 0-3.7-.6-4.6-3.3-5.7l-4.1-1.7c-3.5-1.5-4.8-3.4-4.8-8.7 0-3.1.9-5.6 2.8-7.3 1.5-1.3 3.4-2.1 5.9-2.1 2.8 0 4.8.7 6.2 2.1 1.8 1.7 2.4 4.2 2.4 7.5h-5.4c0-1.6-.1-2.8-.8-3.7-.5-.6-1.3-1-2.4-1s-1.8.4-2.3 1c-.6.7-.9 1.9-.9 3.4 0 2.8.4 3.7 2.9 4.7l4.1 1.7c4.1 1.7 5.2 3.9 5.2 9.7 0 3.5-.5 5.8-2.2 7.5m7-32.6h5.4v34.6h-5.4zm19.5 35c-3.2 0-5.3-1.3-6.7-3-2.3-2.7-2.5-6.5-2.5-14.7s.2-12 2.5-14.7c1.4-1.7 3.5-3 6.7-3 2.7 0 4.7.9 6.2 2.3 1.7 1.7 2.6 4.3 2.7 7.2h-5.4c0-1.9-.4-4.7-3.4-4.7-1.3 0-2.1.5-2.6 1.3-1.1 1.7-1.2 5.1-1.2 11.5 0 6.3.1 9.8 1.2 11.5.5.8 1.3 1.3 2.6 1.3 2.4 0 3.4-2 3.4-4.4v-5.4h-3.4v-4.5h8.8v9.6c0 6.4-3.7 9.7-8.9 9.7m22.4 0c-3.2 0-5.3-1.3-6.7-3-2.3-2.7-2.5-6.5-2.5-14.7s.2-12 2.5-14.7c1.4-1.7 3.5-3 6.7-3 2.7 0 4.7.9 6.2 2.3 1.7 1.7 2.6 4.3 2.7 7.2h-5.4c0-1.9-.4-4.7-3.4-4.7-1.3 0-2.1.5-2.6 1.3-1.1 1.7-1.2 5.1-1.2 11.5 0 6.3.1 9.8 1.2 11.5.5.8 1.3 1.3 2.6 1.3 2.4 0 3.4-2 3.4-4.4v-5.4h-3.4v-4.5h8.8v9.6c-.1 6.4-3.7 9.7-8.9 9.7m26.8-.4-4.5-14.2h-3.1v14.2h-5.4v-34.6h8.7c6.3 0 8.8 3.1 8.8 10.2 0 4.3-.9 7.3-4 9l5.2 15.4zm-4.2-29.7h-3.4v10.6h3.4c2.9 0 3.4-2.4 3.4-5.3-.1-2.9-.5-5.3-3.4-5.3m28.3 29.7-1.4-6.8h-8l-1.4 6.8h-5.7l8.5-34.6h5.3l8.4 34.6zm-5.4-26.2-3 14.5h5.9zm23 12.6h-3.3v13.6h-5.4v-34.6h8.7c6.3 0 8.9 3.3 8.9 10.5-.1 7.3-2.7 10.5-8.9 10.5m-.2-16.1h-3.1v11.2h3.1c2.9 0 3.6-2.1 3.6-5.6s-.7-5.6-3.6-5.6m26 29.7v-15.1h-6.8v15.1h-5.4v-34.6h5.4v14.6h6.8v-14.6h5.4v34.6zm10.6 0v-4.4l8.6-16.8c.8-1.5 1.4-3.6 1.4-6.2 0-2-1.1-3-2.5-3s-2.6 1-2.6 3v2.2h-5.2v-2c0-2.8.8-4.4 2.1-5.7 1.4-1.3 3.5-2 5.6-2s3.9.5 5.3 1.8 2.3 3.2 2.3 6c0 2.5-.8 5.4-1.9 7.6l-7.8 15h9.7v4.5zm32.5-1.7c-1.4 1.3-3.4 2-5.5 2s-4.2-.7-5.5-2c-1.4-1.3-2.2-3-2.2-5.7v-19.8c0-2.8.8-4.4 2.2-5.7s3.4-2 5.5-2 4.1.7 5.5 2 2.2 3 2.2 5.7v19.8c-.1 2.8-.9 4.4-2.2 5.7m-3-25.7c0-2-1.1-3-2.5-3s-2.6 1-2.6 3v20.2c0 2 1.2 3 2.6 3s2.5-1 2.5-3zm15.8 27.4v-28.6l-5.2 4v-5.8l5.2-4.2h5.1v34.6zm27-15.9-6.1 15.9h-5.3l5.7-14c-.6.4-1.4.6-2.1.6-1.8 0-3.4-.7-4.6-2.1-1.3-1.6-1.7-3.4-1.7-8.5 0-4.6.5-6.4 1.7-8.1 1.4-1.9 3.6-2.8 6.1-2.8 2.8 0 4.9 1 6.1 2.8 1.3 1.9 1.7 3.9 1.7 8.1-.1 3-.6 5.8-1.5 8.1m-4.5-13.6c-.4-.6-1.1-.9-1.8-.9s-1.5.3-1.9.9c-.7.9-.8 2.8-.8 5.5s0 4.6.8 5.5c.4.6 1.2.9 1.9.9s1.4-.3 1.8-.9c.7-.9.8-2.8.8-5.5s-.1-4.6-.8-5.5" fill="#fff"/><path clip-path="url(#j)" d="m127.2 33c-1.6-1.3-2.6-3.2-2.6-6.2v-13.2h-2.6v-3.9h2.6v-7.3h5.1v7.2h3.5v3.9h-3.5v12.9c0 2.4 1.2 3.4 3.6 3.4v4.6c-2.3.2-4.3 0-6.1-1.4m19.9 1.6v-18.4c0-2-1.1-3-2.5-3s-2.5 1-2.5 3v18.4h-5.1v-34.6h5.1v10.6c.4-.5 1-1.1 1.5-1.4.7-.4 1.7-.7 2.6-.7 2.1 0 3.5.6 4.7 2 1 1.2 1.5 2.6 1.5 5.5v18.5h-5.3zm19.5-21c-2.4 0-4.3 1.7-4.3 4.4v16.6h-5.1v-25.6h5v2.7c.5-.8 1.4-1.5 2.2-2 1.1-.7 2.5-1.1 4-1.1v5zm4.8-13.6h5.7v5.7h-5.7zm.3 9.7h5.1v24.9h-5.1zm19.7 24.9h-5.4l-6.4-25.6h5.7l3.4 17.4 3.3-17.4h5.7zm13.2-11.3c0 2.9.1 5.1.8 6.1.4.6 1.1 1 2 1 .8 0 1.5-.3 1.9-1 .4-.5.6-1.5.6-2.3h5.2c-.1 2.3-.6 4.2-2.2 5.9-1.4 1.5-3.2 2-5.5 2s-4-.5-5.5-2.1c-2.1-2.2-2.4-6.5-2.4-11.1s.2-8.9 2.4-11.1c1.6-1.6 3.4-2 5.5-2s3.9.4 5.5 2c2 2 2.4 6.5 2.4 12.6zm4.7-9.1c-.4-.6-1-1-2-1s-1.6.4-2 1c-.5.8-.7 2.3-.7 5.3h5.4c0-3-.2-4.5-.7-5.3" fill="#46bfb1"/></svg>